<mxfile host="Electron" agent="Mozilla/5.0 (X11; Linux x86_64) AppleWebKit/537.36 (KHTML, like Gecko) draw.io/26.1.1 Chrome/132.0.6834.210 Electron/34.3.3 Safari/537.36" version="26.1.1" pages="2">
  <diagram name="Exterior+Main Floor" id="19RYuFyA3cSHhjsG67Px">
    <mxGraphModel dx="1778" dy="1034" grid="1" gridSize="10" guides="1" tooltips="1" connect="1" arrows="1" fold="1" page="1" pageScale="1" pageWidth="1200" pageHeight="1920" math="0" shadow="0">
      <root>
        <mxCell id="0" />
        <mxCell id="1" parent="0" />
        <mxCell id="xqO5YFI86WjLA_wbrHM--1" value="Candidate" style="shape=umlActor;verticalLabelPosition=bottom;verticalAlign=top;html=1;outlineConnect=0;" vertex="1" parent="1">
          <mxGeometry x="480" y="1790" width="30" height="60" as="geometry" />
        </mxCell>
        <mxCell id="xqO5YFI86WjLA_wbrHM--6" value="" style="edgeStyle=orthogonalEdgeStyle;rounded=0;orthogonalLoop=1;jettySize=auto;html=1;endArrow=none;" edge="1" parent="1" source="xqO5YFI86WjLA_wbrHM--4" target="xqO5YFI86WjLA_wbrHM--5">
          <mxGeometry relative="1" as="geometry" />
        </mxCell>
        <mxCell id="xqO5YFI86WjLA_wbrHM--7" value="up/down" style="edgeLabel;html=1;align=center;verticalAlign=middle;resizable=0;points=[];" vertex="1" connectable="0" parent="xqO5YFI86WjLA_wbrHM--6">
          <mxGeometry x="0.0333" y="-1" relative="1" as="geometry">
            <mxPoint as="offset" />
          </mxGeometry>
        </mxCell>
        <mxCell id="xqO5YFI86WjLA_wbrHM--4" value="high-ridge" style="rounded=1;whiteSpace=wrap;html=1;" vertex="1" parent="1">
          <mxGeometry x="550" y="1790" width="120" height="60" as="geometry" />
        </mxCell>
        <mxCell id="xqO5YFI86WjLA_wbrHM--9" value="" style="edgeStyle=orthogonalEdgeStyle;rounded=0;orthogonalLoop=1;jettySize=auto;html=1;endArrow=none;" edge="1" parent="1" source="xqO5YFI86WjLA_wbrHM--5" target="xqO5YFI86WjLA_wbrHM--8">
          <mxGeometry relative="1" as="geometry" />
        </mxCell>
        <mxCell id="xqO5YFI86WjLA_wbrHM--11" value="" style="edgeStyle=orthogonalEdgeStyle;rounded=0;orthogonalLoop=1;jettySize=auto;html=1;endArrow=none;" edge="1" parent="1" source="xqO5YFI86WjLA_wbrHM--5" target="xqO5YFI86WjLA_wbrHM--10">
          <mxGeometry relative="1" as="geometry" />
        </mxCell>
        <mxCell id="xqO5YFI86WjLA_wbrHM--12" value="up/down" style="edgeLabel;html=1;align=center;verticalAlign=middle;resizable=0;points=[];" vertex="1" connectable="0" parent="xqO5YFI86WjLA_wbrHM--11">
          <mxGeometry x="0.0083" relative="1" as="geometry">
            <mxPoint as="offset" />
          </mxGeometry>
        </mxCell>
        <mxCell id="xqO5YFI86WjLA_wbrHM--5" value="parish-landing" style="rounded=1;whiteSpace=wrap;html=1;" vertex="1" parent="1">
          <mxGeometry x="550" y="1650" width="120" height="60" as="geometry" />
        </mxCell>
        <mxCell id="xqO5YFI86WjLA_wbrHM--8" value="st-alfonzo-parish" style="rounded=1;whiteSpace=wrap;html=1;" vertex="1" parent="1">
          <mxGeometry x="350" y="1650" width="120" height="60" as="geometry" />
        </mxCell>
        <mxCell id="xqO5YFI86WjLA_wbrHM--14" value="" style="edgeStyle=orthogonalEdgeStyle;rounded=0;orthogonalLoop=1;jettySize=auto;html=1;" edge="1" parent="1" source="xqO5YFI86WjLA_wbrHM--10" target="xqO5YFI86WjLA_wbrHM--13">
          <mxGeometry relative="1" as="geometry" />
        </mxCell>
        <mxCell id="xqO5YFI86WjLA_wbrHM--16" value="" style="edgeStyle=orthogonalEdgeStyle;rounded=0;orthogonalLoop=1;jettySize=auto;html=1;endArrow=none;" edge="1" parent="1" source="xqO5YFI86WjLA_wbrHM--10" target="xqO5YFI86WjLA_wbrHM--15">
          <mxGeometry relative="1" as="geometry" />
        </mxCell>
        <mxCell id="xqO5YFI86WjLA_wbrHM--17" value="up/down&lt;div&gt;&amp;lt;CLEAR FALLEN TREE&amp;gt;&lt;/div&gt;" style="edgeLabel;html=1;align=center;verticalAlign=middle;resizable=0;points=[];" vertex="1" connectable="0" parent="xqO5YFI86WjLA_wbrHM--16">
          <mxGeometry x="-0.0667" y="-1" relative="1" as="geometry">
            <mxPoint as="offset" />
          </mxGeometry>
        </mxCell>
        <mxCell id="xqO5YFI86WjLA_wbrHM--10" value="two-sheds-landing" style="rounded=1;whiteSpace=wrap;html=1;" vertex="1" parent="1">
          <mxGeometry x="550" y="1510" width="120" height="60" as="geometry" />
        </mxCell>
        <mxCell id="xqO5YFI86WjLA_wbrHM--13" value="two-sheds" style="rounded=1;whiteSpace=wrap;html=1;" vertex="1" parent="1">
          <mxGeometry x="750" y="1510" width="120" height="60" as="geometry" />
        </mxCell>
        <mxCell id="xqO5YFI86WjLA_wbrHM--19" value="" style="edgeStyle=orthogonalEdgeStyle;rounded=0;orthogonalLoop=1;jettySize=auto;html=1;endArrow=none;" edge="1" parent="1" source="xqO5YFI86WjLA_wbrHM--15" target="xqO5YFI86WjLA_wbrHM--18">
          <mxGeometry relative="1" as="geometry" />
        </mxCell>
        <mxCell id="xqO5YFI86WjLA_wbrHM--20" value="up/down" style="edgeLabel;html=1;align=center;verticalAlign=middle;resizable=0;points=[];fontFamily=Helvetica;fontSize=11;fontColor=default;labelBackgroundColor=default;" vertex="1" connectable="0" parent="xqO5YFI86WjLA_wbrHM--19">
          <mxGeometry x="-0.0042" relative="1" as="geometry">
            <mxPoint as="offset" />
          </mxGeometry>
        </mxCell>
        <mxCell id="xqO5YFI86WjLA_wbrHM--15" value="guard-post" style="rounded=1;whiteSpace=wrap;html=1;" vertex="1" parent="1">
          <mxGeometry x="550" y="1370" width="120" height="60" as="geometry" />
        </mxCell>
        <mxCell id="xqO5YFI86WjLA_wbrHM--22" value="" style="edgeStyle=orthogonalEdgeStyle;shape=connector;rounded=0;orthogonalLoop=1;jettySize=auto;html=1;strokeColor=default;align=center;verticalAlign=middle;fontFamily=Helvetica;fontSize=11;fontColor=default;labelBackgroundColor=default;endArrow=none;" edge="1" parent="1" source="xqO5YFI86WjLA_wbrHM--18" target="xqO5YFI86WjLA_wbrHM--21">
          <mxGeometry relative="1" as="geometry" />
        </mxCell>
        <mxCell id="xqO5YFI86WjLA_wbrHM--18" value="inca-road" style="rounded=1;whiteSpace=wrap;html=1;" vertex="1" parent="1">
          <mxGeometry x="550" y="1230" width="120" height="60" as="geometry" />
        </mxCell>
        <mxCell id="xqO5YFI86WjLA_wbrHM--24" value="" style="edgeStyle=orthogonalEdgeStyle;shape=connector;rounded=0;orthogonalLoop=1;jettySize=auto;html=1;strokeColor=default;align=center;verticalAlign=middle;fontFamily=Helvetica;fontSize=11;fontColor=default;labelBackgroundColor=default;endArrow=none;" edge="1" parent="1" source="xqO5YFI86WjLA_wbrHM--21" target="xqO5YFI86WjLA_wbrHM--23">
          <mxGeometry relative="1" as="geometry" />
        </mxCell>
        <mxCell id="xqO5YFI86WjLA_wbrHM--25" value="&amp;lt;MUST HAVE TOWEL&amp;gt;" style="edgeLabel;html=1;align=center;verticalAlign=middle;resizable=0;points=[];fontFamily=Helvetica;fontSize=11;fontColor=default;labelBackgroundColor=default;" vertex="1" connectable="0" parent="xqO5YFI86WjLA_wbrHM--24">
          <mxGeometry x="-0.0042" y="-1" relative="1" as="geometry">
            <mxPoint x="-1" y="39" as="offset" />
          </mxGeometry>
        </mxCell>
        <mxCell id="xqO5YFI86WjLA_wbrHM--27" value="" style="edgeStyle=orthogonalEdgeStyle;shape=connector;rounded=0;orthogonalLoop=1;jettySize=auto;html=1;strokeColor=default;align=center;verticalAlign=middle;fontFamily=Helvetica;fontSize=11;fontColor=default;labelBackgroundColor=default;endArrow=none;" edge="1" parent="1" source="xqO5YFI86WjLA_wbrHM--21" target="xqO5YFI86WjLA_wbrHM--26">
          <mxGeometry relative="1" as="geometry" />
        </mxCell>
        <mxCell id="xqO5YFI86WjLA_wbrHM--29" value="" style="edgeStyle=orthogonalEdgeStyle;shape=connector;rounded=0;orthogonalLoop=1;jettySize=auto;html=1;strokeColor=default;align=center;verticalAlign=middle;fontFamily=Helvetica;fontSize=11;fontColor=default;labelBackgroundColor=default;endArrow=none;" edge="1" parent="1" source="xqO5YFI86WjLA_wbrHM--21" target="xqO5YFI86WjLA_wbrHM--28">
          <mxGeometry relative="1" as="geometry" />
        </mxCell>
        <mxCell id="xqO5YFI86WjLA_wbrHM--21" value="front-entrance" style="rounded=1;whiteSpace=wrap;html=1;" vertex="1" parent="1">
          <mxGeometry x="550" y="1090" width="120" height="60" as="geometry" />
        </mxCell>
        <mxCell id="xqO5YFI86WjLA_wbrHM--31" value="" style="edgeStyle=orthogonalEdgeStyle;shape=connector;rounded=0;orthogonalLoop=1;jettySize=auto;html=1;strokeColor=default;align=center;verticalAlign=middle;fontFamily=Helvetica;fontSize=11;fontColor=default;labelBackgroundColor=default;endArrow=none;" edge="1" parent="1" source="xqO5YFI86WjLA_wbrHM--23" target="xqO5YFI86WjLA_wbrHM--30">
          <mxGeometry relative="1" as="geometry" />
        </mxCell>
        <mxCell id="xqO5YFI86WjLA_wbrHM--33" value="" style="edgeStyle=orthogonalEdgeStyle;shape=connector;rounded=0;orthogonalLoop=1;jettySize=auto;html=1;strokeColor=default;align=center;verticalAlign=middle;fontFamily=Helvetica;fontSize=11;fontColor=default;labelBackgroundColor=default;endArrow=none;" edge="1" parent="1" source="xqO5YFI86WjLA_wbrHM--23" target="xqO5YFI86WjLA_wbrHM--32">
          <mxGeometry relative="1" as="geometry" />
        </mxCell>
        <mxCell id="xqO5YFI86WjLA_wbrHM--35" value="" style="edgeStyle=orthogonalEdgeStyle;shape=connector;rounded=0;orthogonalLoop=1;jettySize=auto;html=1;strokeColor=default;align=center;verticalAlign=middle;fontFamily=Helvetica;fontSize=11;fontColor=default;labelBackgroundColor=default;endArrow=none;" edge="1" parent="1" source="xqO5YFI86WjLA_wbrHM--23" target="xqO5YFI86WjLA_wbrHM--34">
          <mxGeometry relative="1" as="geometry" />
        </mxCell>
        <mxCell id="xqO5YFI86WjLA_wbrHM--23" value="main-lobby" style="rounded=1;whiteSpace=wrap;html=1;" vertex="1" parent="1">
          <mxGeometry x="550" y="770" width="120" height="60" as="geometry" />
        </mxCell>
        <mxCell id="xqO5YFI86WjLA_wbrHM--63" value="" style="edgeStyle=orthogonalEdgeStyle;shape=connector;rounded=0;orthogonalLoop=1;jettySize=auto;html=1;strokeColor=default;align=center;verticalAlign=middle;fontFamily=Helvetica;fontSize=11;fontColor=default;labelBackgroundColor=default;endArrow=none;" edge="1" parent="1" source="xqO5YFI86WjLA_wbrHM--26" target="xqO5YFI86WjLA_wbrHM--62">
          <mxGeometry relative="1" as="geometry">
            <Array as="points">
              <mxPoint x="80" y="110" />
            </Array>
          </mxGeometry>
        </mxCell>
        <mxCell id="xqO5YFI86WjLA_wbrHM--26" value="west-of-building" style="rounded=1;whiteSpace=wrap;html=1;" vertex="1" parent="1">
          <mxGeometry x="20" y="560" width="120" height="60" as="geometry" />
        </mxCell>
        <mxCell id="xqO5YFI86WjLA_wbrHM--28" value="east-of-building" style="rounded=1;whiteSpace=wrap;html=1;" vertex="1" parent="1">
          <mxGeometry x="1070" y="560" width="120" height="60" as="geometry" />
        </mxCell>
        <mxCell id="xqO5YFI86WjLA_wbrHM--39" value="" style="edgeStyle=orthogonalEdgeStyle;shape=connector;rounded=0;orthogonalLoop=1;jettySize=auto;html=1;strokeColor=default;align=center;verticalAlign=middle;fontFamily=Helvetica;fontSize=11;fontColor=default;labelBackgroundColor=default;endArrow=none;" edge="1" parent="1" source="xqO5YFI86WjLA_wbrHM--30" target="xqO5YFI86WjLA_wbrHM--38">
          <mxGeometry relative="1" as="geometry" />
        </mxCell>
        <mxCell id="xqO5YFI86WjLA_wbrHM--43" value="" style="edgeStyle=orthogonalEdgeStyle;shape=connector;rounded=0;orthogonalLoop=1;jettySize=auto;html=1;strokeColor=default;align=center;verticalAlign=middle;fontFamily=Helvetica;fontSize=11;fontColor=default;labelBackgroundColor=default;endArrow=none;" edge="1" parent="1" source="xqO5YFI86WjLA_wbrHM--30" target="xqO5YFI86WjLA_wbrHM--42">
          <mxGeometry relative="1" as="geometry" />
        </mxCell>
        <mxCell id="xqO5YFI86WjLA_wbrHM--30" value="lift-bank-main" style="rounded=1;whiteSpace=wrap;html=1;" vertex="1" parent="1">
          <mxGeometry x="550" y="630" width="120" height="60" as="geometry" />
        </mxCell>
        <mxCell id="xqO5YFI86WjLA_wbrHM--55" value="" style="edgeStyle=orthogonalEdgeStyle;shape=connector;rounded=0;orthogonalLoop=1;jettySize=auto;html=1;strokeColor=default;align=center;verticalAlign=middle;fontFamily=Helvetica;fontSize=11;fontColor=default;labelBackgroundColor=default;endArrow=none;" edge="1" parent="1" source="xqO5YFI86WjLA_wbrHM--32" target="xqO5YFI86WjLA_wbrHM--54">
          <mxGeometry relative="1" as="geometry" />
        </mxCell>
        <mxCell id="xqO5YFI86WjLA_wbrHM--59" value="" style="edgeStyle=orthogonalEdgeStyle;shape=connector;rounded=0;orthogonalLoop=1;jettySize=auto;html=1;strokeColor=default;align=center;verticalAlign=middle;fontFamily=Helvetica;fontSize=11;fontColor=default;labelBackgroundColor=default;endArrow=none;" edge="1" parent="1" source="xqO5YFI86WjLA_wbrHM--32" target="xqO5YFI86WjLA_wbrHM--58">
          <mxGeometry relative="1" as="geometry" />
        </mxCell>
        <mxCell id="xqO5YFI86WjLA_wbrHM--60" value="&amp;lt;MUST HAVE VISITOR PASS&amp;gt;" style="edgeLabel;html=1;align=center;verticalAlign=middle;resizable=0;points=[];fontFamily=Helvetica;fontSize=11;fontColor=default;labelBackgroundColor=default;" vertex="1" connectable="0" parent="xqO5YFI86WjLA_wbrHM--59">
          <mxGeometry x="0.0042" y="-1" relative="1" as="geometry">
            <mxPoint as="offset" />
          </mxGeometry>
        </mxCell>
        <mxCell id="xqO5YFI86WjLA_wbrHM--32" value="restaurant" style="rounded=1;whiteSpace=wrap;html=1;" vertex="1" parent="1">
          <mxGeometry x="750" y="770" width="120" height="60" as="geometry" />
        </mxCell>
        <mxCell id="xqO5YFI86WjLA_wbrHM--51" value="" style="edgeStyle=orthogonalEdgeStyle;shape=connector;rounded=0;orthogonalLoop=1;jettySize=auto;html=1;strokeColor=default;align=center;verticalAlign=middle;fontFamily=Helvetica;fontSize=11;fontColor=default;labelBackgroundColor=default;endArrow=none;dashed=1;dashPattern=1 3;strokeWidth=2;" edge="1" parent="1" source="xqO5YFI86WjLA_wbrHM--34" target="xqO5YFI86WjLA_wbrHM--50">
          <mxGeometry relative="1" as="geometry" />
        </mxCell>
        <mxCell id="xqO5YFI86WjLA_wbrHM--53" value="" style="edgeStyle=orthogonalEdgeStyle;shape=connector;rounded=0;orthogonalLoop=1;jettySize=auto;html=1;strokeColor=default;align=center;verticalAlign=middle;fontFamily=Helvetica;fontSize=11;fontColor=default;labelBackgroundColor=default;endArrow=none;" edge="1" parent="1" source="xqO5YFI86WjLA_wbrHM--34" target="xqO5YFI86WjLA_wbrHM--52">
          <mxGeometry relative="1" as="geometry" />
        </mxCell>
        <mxCell id="xqO5YFI86WjLA_wbrHM--34" value="b-a-office" style="rounded=1;whiteSpace=wrap;html=1;" vertex="1" parent="1">
          <mxGeometry x="350" y="770" width="120" height="60" as="geometry" />
        </mxCell>
        <mxCell id="xqO5YFI86WjLA_wbrHM--38" value="lift-main" style="rounded=1;whiteSpace=wrap;html=1;" vertex="1" parent="1">
          <mxGeometry x="550" y="490" width="120" height="60" as="geometry" />
        </mxCell>
        <mxCell id="xqO5YFI86WjLA_wbrHM--45" value="" style="edgeStyle=orthogonalEdgeStyle;shape=connector;rounded=0;orthogonalLoop=1;jettySize=auto;html=1;strokeColor=default;align=center;verticalAlign=middle;fontFamily=Helvetica;fontSize=11;fontColor=default;labelBackgroundColor=default;endArrow=none;dashed=1;dashPattern=1 3;strokeWidth=2;" edge="1" parent="1" source="xqO5YFI86WjLA_wbrHM--42" target="xqO5YFI86WjLA_wbrHM--44">
          <mxGeometry relative="1" as="geometry" />
        </mxCell>
        <mxCell id="xqO5YFI86WjLA_wbrHM--46" value="&amp;lt;REVEAL TRAPDOOR&amp;gt;" style="edgeLabel;html=1;align=center;verticalAlign=middle;resizable=0;points=[];fontFamily=Helvetica;fontSize=11;fontColor=default;labelBackgroundColor=default;" vertex="1" connectable="0" parent="xqO5YFI86WjLA_wbrHM--45">
          <mxGeometry x="0.0583" relative="1" as="geometry">
            <mxPoint as="offset" />
          </mxGeometry>
        </mxCell>
        <mxCell id="xqO5YFI86WjLA_wbrHM--42" value="lounge" style="rounded=1;whiteSpace=wrap;html=1;" vertex="1" parent="1">
          <mxGeometry x="750" y="630" width="120" height="60" as="geometry" />
        </mxCell>
        <mxCell id="xqO5YFI86WjLA_wbrHM--48" value="" style="edgeStyle=orthogonalEdgeStyle;shape=connector;rounded=0;orthogonalLoop=1;jettySize=auto;html=1;strokeColor=default;align=center;verticalAlign=middle;fontFamily=Helvetica;fontSize=11;fontColor=default;labelBackgroundColor=default;endArrow=none;dashed=1;dashPattern=1 3;strokeWidth=2;" edge="1" parent="1" source="xqO5YFI86WjLA_wbrHM--44" target="xqO5YFI86WjLA_wbrHM--47">
          <mxGeometry relative="1" as="geometry" />
        </mxCell>
        <mxCell id="xqO5YFI86WjLA_wbrHM--49" value="&amp;lt;POWER PORTAL GUN&amp;gt;&lt;div&gt;&amp;lt;OPEN PORTAL&amp;gt;&lt;/div&gt;" style="edgeLabel;html=1;align=center;verticalAlign=middle;resizable=0;points=[];fontFamily=Helvetica;fontSize=11;fontColor=default;labelBackgroundColor=default;" vertex="1" connectable="0" parent="xqO5YFI86WjLA_wbrHM--48">
          <mxGeometry x="-0.0667" y="-1" relative="1" as="geometry">
            <mxPoint as="offset" />
          </mxGeometry>
        </mxCell>
        <mxCell id="xqO5YFI86WjLA_wbrHM--44" value="portal-room" style="rounded=1;whiteSpace=wrap;html=1;" vertex="1" parent="1">
          <mxGeometry x="750" y="490" width="120" height="60" as="geometry" />
        </mxCell>
        <mxCell id="xqO5YFI86WjLA_wbrHM--47" value="aperture-lab" style="rounded=1;whiteSpace=wrap;html=1;" vertex="1" parent="1">
          <mxGeometry x="750" y="350" width="120" height="60" as="geometry" />
        </mxCell>
        <mxCell id="xqO5YFI86WjLA_wbrHM--52" value="supply-closet" style="rounded=1;whiteSpace=wrap;html=1;" vertex="1" parent="1">
          <mxGeometry x="350" y="680" width="120" height="60" as="geometry" />
        </mxCell>
        <mxCell id="xqO5YFI86WjLA_wbrHM--54" value="patio" style="rounded=1;whiteSpace=wrap;html=1;" vertex="1" parent="1">
          <mxGeometry x="900" y="770" width="120" height="60" as="geometry" />
        </mxCell>
        <mxCell id="xqO5YFI86WjLA_wbrHM--58" value="vip-bathroom" style="rounded=1;whiteSpace=wrap;html=1;" vertex="1" parent="1">
          <mxGeometry x="750" y="860" width="120" height="60" as="geometry" />
        </mxCell>
        <mxCell id="xqO5YFI86WjLA_wbrHM--62" value="loading-dock" style="rounded=1;whiteSpace=wrap;html=1;" vertex="1" parent="1">
          <mxGeometry x="540" y="80" width="120" height="60" as="geometry" />
        </mxCell>
        <mxCell id="xqO5YFI86WjLA_wbrHM--65" value="" style="endArrow=none;html=1;rounded=0;strokeColor=default;align=center;verticalAlign=middle;fontFamily=Helvetica;fontSize=11;fontColor=default;labelBackgroundColor=default;edgeStyle=orthogonalEdgeStyle;entryX=0.5;entryY=0;entryDx=0;entryDy=0;exitX=1;exitY=0.5;exitDx=0;exitDy=0;" edge="1" parent="1" source="xqO5YFI86WjLA_wbrHM--62" target="xqO5YFI86WjLA_wbrHM--28">
          <mxGeometry width="50" height="50" relative="1" as="geometry">
            <mxPoint x="940" y="150" as="sourcePoint" />
            <mxPoint x="990" y="100" as="targetPoint" />
          </mxGeometry>
        </mxCell>
        <mxCell id="xqO5YFI86WjLA_wbrHM--66" value="Amble Adventures Office - Main Floor" style="swimlane;whiteSpace=wrap;html=1;fontFamily=Helvetica;fontSize=14;fontColor=default;labelBackgroundColor=default;" vertex="1" parent="1">
          <mxGeometry x="176.25" y="290" width="867.5" height="670" as="geometry" />
        </mxCell>
        <mxCell id="xqO5YFI86WjLA_wbrHM--50" value="poetry-panic" style="rounded=1;whiteSpace=wrap;html=1;" vertex="1" parent="xqO5YFI86WjLA_wbrHM--66">
          <mxGeometry x="13.75" y="480" width="120" height="60" as="geometry" />
        </mxCell>
      </root>
    </mxGraphModel>
  </diagram>
  <diagram id="cmFGHoSGV_XfavvorujG" name="Sublevel-1">
    <mxGraphModel dx="1422" dy="827" grid="1" gridSize="10" guides="1" tooltips="1" connect="1" arrows="1" fold="1" page="1" pageScale="1" pageWidth="1200" pageHeight="1920" math="0" shadow="0">
      <root>
        <mxCell id="0" />
        <mxCell id="1" parent="0" />
        <mxCell id="qKrAAJViFeZTdNuUBW99-3" value="" style="edgeStyle=orthogonalEdgeStyle;shape=connector;rounded=0;orthogonalLoop=1;jettySize=auto;html=1;strokeColor=default;align=center;verticalAlign=middle;fontFamily=Helvetica;fontSize=11;fontColor=default;labelBackgroundColor=default;endArrow=none;" edge="1" parent="1" source="qKrAAJViFeZTdNuUBW99-1" target="qKrAAJViFeZTdNuUBW99-2">
          <mxGeometry relative="1" as="geometry" />
        </mxCell>
        <mxCell id="qKrAAJViFeZTdNuUBW99-1" value="lift-sublevel-1" style="rounded=1;whiteSpace=wrap;html=1;fontFamily=Helvetica;fontSize=11;fontColor=default;labelBackgroundColor=default;" vertex="1" parent="1">
          <mxGeometry x="540" y="40" width="120" height="60" as="geometry" />
        </mxCell>
        <mxCell id="qKrAAJViFeZTdNuUBW99-5" value="" style="edgeStyle=orthogonalEdgeStyle;shape=connector;rounded=0;orthogonalLoop=1;jettySize=auto;html=1;strokeColor=default;align=center;verticalAlign=middle;fontFamily=Helvetica;fontSize=11;fontColor=default;labelBackgroundColor=default;endArrow=none;dashed=1;dashPattern=1 3;strokeWidth=2;" edge="1" parent="1" source="qKrAAJViFeZTdNuUBW99-2" target="qKrAAJViFeZTdNuUBW99-4">
          <mxGeometry relative="1" as="geometry" />
        </mxCell>
        <mxCell id="qKrAAJViFeZTdNuUBW99-2" value="sublevel-1-entrance" style="rounded=1;whiteSpace=wrap;html=1;fontFamily=Helvetica;fontSize=11;fontColor=default;labelBackgroundColor=default;" vertex="1" parent="1">
          <mxGeometry x="540" y="180" width="120" height="60" as="geometry" />
        </mxCell>
        <mxCell id="qKrAAJViFeZTdNuUBW99-4" value="room-aa-3b" style="rounded=1;whiteSpace=wrap;html=1;fontFamily=Helvetica;fontSize=11;labelBackgroundColor=default;" vertex="1" parent="1">
          <mxGeometry x="340" y="180" width="120" height="60" as="geometry" />
        </mxCell>
      </root>
    </mxGraphModel>
  </diagram>
</mxfile>
